<?xml version="1.0" encoding="UTF-8" standalone="no"?>
<svg
   width="28.49501mm"
   height="37.864716mm"
   viewBox="0 0 28.495011 37.864716"
   version="1.1"
   id="buttons"
   inkscape:version="1.1.2 (0a00cf5339, 2022-02-04)"
   sodipodi:docname="buttons.svg"
   xmlns:inkscape="http://www.inkscape.org/namespaces/inkscape"
   xmlns:sodipodi="http://sodipodi.sourceforge.net/DTD/sodipodi-0.dtd"
   xmlns:xlink="http://www.w3.org/1999/xlink"
   xmlns="http://www.w3.org/2000/svg"
   xmlns:svg="http://www.w3.org/2000/svg">
  <sodipodi:namedview
     id="namedview7"
     pagecolor="#ffffff"
     bordercolor="#666666"
     borderopacity="1.0"
     inkscape:pageshadow="2"
     inkscape:pageopacity="0.0"
     inkscape:pagecheckerboard="0"
     inkscape:document-units="mm"
     showgrid="false"
     inkscape:zoom="2.5788108"
     inkscape:cx="23.848202"
     inkscape:cy="64.952419"
     inkscape:window-width="1846"
     inkscape:window-height="1016"
     inkscape:window-x="0"
     inkscape:window-y="0"
     inkscape:window-maximized="1"
     inkscape:current-layer="layer1"
     fit-margin-top="0"
     fit-margin-left="0"
     fit-margin-right="0"
     fit-margin-bottom="0"
     inkscape:snap-grids="false"
     inkscape:snap-page="true"
     inkscape:snap-to-guides="false"
     inkscape:snap-bbox="true" />
  <defs
     id="defs2" />
  <g
     inkscape:label="Layer 1"
     inkscape:groupmode="layer"
     id="layer1"
     transform="translate(-12.472734,-96.939201)">
    <use
       x="0"
       y="0"
       xlink:href="#g4215"
       id="down"
       transform="matrix(0,0.32617746,-0.27309386,0,57.451403,102.50591)"
       width="100%"
       height="100%" />
    <g
       id="right"
       transform="matrix(0.32617747,0,0,0.27309385,18.099353,80.399588)">
      <g
         id="g4215"
         transform="matrix(0.94372891,0,0,1.0518924,14.584982,5.4747646)">
        <path
           id="path906"
           style="fill:none;stroke:#000000;stroke-width:1.865;stroke-linecap:round;stroke-linejoin:miter;stroke-miterlimit:4;stroke-dasharray:none;stroke-opacity:0.46297"
           d="m 47.425169,97.261055 8.93536,4.641335 -9.00136,4.72833 m -9.702807,-4.66922 18.704167,-0.0591"
           sodipodi:nodetypes="ccccc" />
        <ellipse
           style="fill:#000000;fill-opacity:0.111448;stroke-width:8.50872;stroke-linecap:round;stroke-opacity:0.545"
           id="path855"
           cx="47.465893"
           cy="101.94588"
           rx="11.370167"
           ry="12.183857" />
      </g>
    </g>
    <use
       x="0"
       y="0"
       xlink:href="#g4215"
       id="left"
       transform="matrix(-0.32617747,0,0,0.27309385,35.341125,80.399588)"
       width="100%"
       height="100%" />
    <use
       x="0"
       y="0"
       xlink:href="#g4215"
       id="up"
       transform="matrix(0,-0.32617746,0.27309386,0,-4.0893408,119.80759)"
       width="100%"
       height="100%" />
    <g
       id="ru"
       transform="matrix(0.31079243,0,0,0.30315567,18.097116,78.069311)">
      <use
         x="0"
         y="0"
         xlink:href="#g4215"
         id="use4223"
         transform="matrix(0.72651977,-0.73710541,0.6341207,0.65623073,-64.322953,56.584804)"
         width="100%"
         height="100%" />
    </g>
    <use
       x="0"
       y="0"
       xlink:href="#use4223"
       id="lu"
       transform="matrix(-0.31079243,0,0,0.30315567,35.143205,77.875077)"
       width="100%"
       height="100%" />
    <use
       x="0"
       y="0"
       xlink:href="#use4223"
       id="rd"
       transform="matrix(0.31079243,0,0,-0.30315567,18.525937,144.79487)"
       width="100%"
       height="100%" />
    <use
       x="0"
       y="0"
       xlink:href="#use4223"
       id="ld"
       transform="matrix(-0.31079243,0,0,-0.30315567,34.811364,144.78244)"
       width="100%"
       height="100%" />
    <g
       id="center"
       transform="matrix(1.1264753,0,0,1.1868651,-3.6853384,-20.775704)">
      <use
         x="0"
         y="0"
         xlink:href="#path855"
         id="use959"
         width="100%"
         height="100%"
         transform="matrix(0.39745422,0,0,0.35866392,8.1919221,74.615925)" />
      <rect
         style="fill:none;fill-opacity:0.111448;stroke:#000000;stroke-width:0.5;stroke-linecap:round;stroke-miterlimit:4;stroke-dasharray:none;stroke-opacity:0.434877"
         id="rect1114"
         width="4.3340049"
         height="4.1195893"
         x="24.89044"
         y="109.12044"
         ry="0"
         rx="0" />
    </g>
    <g
       id="zoom_out">
      <use
         x="0"
         y="0"
         xlink:href="#path855"
         id="use836-4"
         width="100%"
         height="100%"
         transform="matrix(0.3078231,0,0,0.28726535,6.1915185,102.0184)"
         inkscape:transform-center-x="5.6669959"
         inkscape:transform-center-y="0.54411323" />
      <path
         id="path906-3"
         style="fill:none;stroke:#000000;stroke-width:0.554589;stroke-linecap:round;stroke-linejoin:miter;stroke-miterlimit:4;stroke-dasharray:none;stroke-opacity:0.46297"
         d="m 17.931561,131.37616 5.757574,-0.017"
         sodipodi:nodetypes="cc" />
    </g>
    <g
       id="zoom_in">
      <use
         x="0"
         y="0"
         xlink:href="#path855"
         id="use836"
         width="100%"
         height="100%"
         transform="matrix(0.3078231,0,0,0.28726535,18.26986,101.92366)" />
      <path
         id="use3678"
         style="fill:none;stroke:#000000;stroke-width:0.554589;stroke-linecap:round;stroke-linejoin:miter;stroke-miterlimit:4;stroke-dasharray:none;stroke-opacity:0.46297"
         d="m 29.948499,131.32486 5.757574,-0.017 m -2.887373,-2.87036 0.017,5.75758" />
    </g>
  </g>
</svg>
