<svg width="1479pt" height="785pt"
 viewBox="0.00 0.00 1479.00 785.00" xmlns="http://www.w3.org/2000/svg" xmlns:xlink="http://www.w3.org/1999/xlink">
<g id="graph0" class="graph" transform="scale(1 1) rotate(0) translate(4 781)">
<title>matrix</title>
<polygon fill="white" stroke="transparent" points="-4,4 -4,-781 1475,-781 1475,4 -4,4"/>
<!-- system_ -->
<!-- SCI -->
<g id="node3" class="node">
<title>SCI</title>
<g id="a_node3"><a xlink:href="https://en.wikibooks.org/wiki/The_Linux_Kernel/Syscalls" xlink:title="System calls">
<ellipse fill="#d9e7ee" stroke="#e27dd6" stroke-width="5" cx="302" cy="-578" rx="79" ry="36"/>
<text text-anchor="middle" x="302" y="-571.8" font-family="Ubuntu" font-size="24.00">System calls</text>
</a>
</g>
</g>
<!-- system_&#45;&gt;SCI -->
<!-- system -->
<g id="node2" class="node">
<title>system</title>
<polygon fill="white" stroke="#e27dd6" stroke-width="5" points="374,-719 230,-719 230,-676 374,-676 374,-719"/>
<text text-anchor="middle" x="302" y="-691.3" font-family="Ubuntu" font-size="24.00">system</text>
</g>
<!-- system&#45;&gt;system_ -->
<g id="edge1" class="edge">
<title>system&#45;&gt;system_</title>
<path fill="none" stroke="#e27dd6" stroke-width="5" d="M302,-675.96C302,-666.86 302,-656.91 302,-651.08"/>
<polygon fill="#e27dd6" stroke="#e27dd6" stroke-width="5" points="304.19,-651.05 302,-646.05 299.81,-651.05 304.19,-651.05"/>
</g>
<!-- networking -->
<g id="node10" class="node">
<title>networking</title>
<polygon fill="white" stroke="#61c2c5" stroke-width="5" points="559,-719 415,-719 415,-676 559,-676 559,-719"/>
<text text-anchor="middle" x="487" y="-691.3" font-family="Ubuntu" font-size="24.00">networking</text>
</g>
<!-- system&#45;&gt;networking -->
<!-- sysfs -->
<g id="node4" class="node">
<title>sysfs</title>
<polygon fill="#b2d3e4" stroke="#e27dd6" stroke-width="5" points="381,-528 223,-528 223,-456 381,-456 381,-528"/>
<text text-anchor="middle" x="302" y="-498.8" font-family="Ubuntu" font-size="24.00">proc, sysfs,</text>
<text text-anchor="middle" x="302" y="-472.8" font-family="Ubuntu" font-size="24.00">file systems</text>
</g>
<!-- SCI&#45;&gt;sysfs -->
<g id="edge2" class="edge">
<title>SCI&#45;&gt;sysfs</title>
<path fill="none" stroke="#e27dd6" stroke-width="5" d="M302,-541.86C302,-537.37 302,-532.76 302,-528.27"/>
</g>
<!-- DM -->
<g id="node5" class="node">
<title>DM</title>
<polygon fill="#91b5c9" stroke="#e27dd6" stroke-width="5" points="374,-393.99 374,-418.01 331.82,-435 272.18,-435 230,-418.01 230,-393.99 272.18,-377 331.82,-377 374,-393.99"/>
<text text-anchor="middle" x="302" y="-412" font-family="Ubuntu" font-size="20.00">Device</text>
<text text-anchor="middle" x="302" y="-390" font-family="Ubuntu" font-size="20.00">Model</text>
</g>
<!-- sysfs&#45;&gt;DM -->
<g id="edge3" class="edge">
<title>sysfs&#45;&gt;DM</title>
<path fill="none" stroke="#e27dd6" stroke-width="5" d="M302,-455.86C302,-448.94 302,-441.76 302,-435.11"/>
</g>
<!-- log_sys -->
<g id="node6" class="node">
<title>log_sys</title>
<polygon fill="#6a9ab1" stroke="#e27dd6" stroke-width="5" points="381,-356 223,-356 223,-260 381,-260 381,-356"/>
<text text-anchor="middle" x="302" y="-336" font-family="Ubuntu" font-size="20.00">system run,</text>
<text text-anchor="middle" x="302" y="-314" font-family="Ubuntu" font-size="20.00">modules,</text>
<text text-anchor="middle" x="302" y="-292" font-family="Ubuntu" font-size="20.00">generic</text>
<text text-anchor="middle" x="302" y="-270" font-family="Ubuntu" font-size="20.00">HW access </text>
</g>
<!-- DM&#45;&gt;log_sys -->
<g id="edge4" class="edge">
<title>DM&#45;&gt;log_sys</title>
<path fill="none" stroke="#e27dd6" stroke-width="5" d="M302,-376.97C302,-370.44 302,-363.31 302,-356.21"/>
</g>
<!-- bus_drv -->
<g id="node7" class="node">
<title>bus_drv</title>
<polygon fill="#71809b" stroke="#e27dd6" stroke-width="5" points="381,-245 223,-245 223,-173 381,-173 381,-245"/>
<text text-anchor="middle" x="302" y="-202.8" font-family="Ubuntu" font-size="24.00">bus drivers</text>
</g>
<!-- log_sys&#45;&gt;bus_drv -->
<g id="edge5" class="edge">
<title>log_sys&#45;&gt;bus_drv</title>
<path fill="none" stroke="#e27dd6" stroke-width="5" d="M302,-259.92C302,-254.9 302,-249.86 302,-245.01"/>
</g>
<!-- H2 -->
<g id="node8" class="node">
<title>H2</title>
<polygon fill="#777777" stroke="#e27dd6" stroke-width="5" points="381,-158 223,-158 223,-86 381,-86 381,-158"/>
<text text-anchor="middle" x="302" y="-128" font-family="Ubuntu" font-size="20.00" fill="white">busess:</text>
<text text-anchor="middle" x="302" y="-106" font-family="Ubuntu" font-size="20.00" fill="white">PCI, USB ...</text>
</g>
<!-- bus_drv&#45;&gt;H2 -->
<g id="edge6" class="edge">
<title>bus_drv&#45;&gt;H2</title>
<path fill="none" stroke="#e27dd6" stroke-width="5" d="M302,-172.94C302,-168.09 302,-163.11 302,-158.26"/>
</g>
<!-- networking_ -->
<!-- sock -->
<g id="node11" class="node">
<title>sock</title>
<ellipse fill="#d9e7ee" stroke="#61c2c5" stroke-width="5" cx="487" cy="-578" rx="79" ry="36"/>
<text text-anchor="middle" x="487" y="-571.8" font-family="Ubuntu" font-size="24.00">Sockets</text>
</g>
<!-- networking_&#45;&gt;sock -->
<!-- networking&#45;&gt;networking_ -->
<g id="edge7" class="edge">
<title>networking&#45;&gt;networking_</title>
<path fill="none" stroke="#61c2c5" stroke-width="5" d="M487,-675.96C487,-666.86 487,-656.91 487,-651.08"/>
<polygon fill="#61c2c5" stroke="#61c2c5" stroke-width="5" points="489.19,-651.05 487,-646.05 484.81,-651.05 489.19,-651.05"/>
</g>
<!-- storage -->
<g id="node18" class="node">
<title>storage</title>
<polygon fill="white" stroke="#8383cc" stroke-width="5" points="748,-719 604,-719 604,-676 748,-676 748,-719"/>
<text text-anchor="middle" x="676" y="-691.3" font-family="Ubuntu" font-size="24.00">storage</text>
</g>
<!-- networking&#45;&gt;storage -->
<!-- prot_fam -->
<g id="node12" class="node">
<title>prot_fam</title>
<polygon fill="#b2d3e4" stroke="#61c2c5" stroke-width="5" points="566,-528 408,-528 408,-456 566,-456 566,-528"/>
<text text-anchor="middle" x="487" y="-498.8" font-family="Ubuntu" font-size="24.00">protocol</text>
<text text-anchor="middle" x="487" y="-472.8" font-family="Ubuntu" font-size="24.00">families</text>
</g>
<!-- sock&#45;&gt;prot_fam -->
<g id="edge8" class="edge">
<title>sock&#45;&gt;prot_fam</title>
<path fill="none" stroke="#61c2c5" stroke-width="5" d="M487,-541.86C487,-537.37 487,-532.76 487,-528.27"/>
</g>
<!-- log_prot -->
<g id="node13" class="node">
<title>log_prot</title>
<polygon fill="#6a9ab1" stroke="#61c2c5" stroke-width="5" points="566,-344 408,-344 408,-272 566,-272 566,-344"/>
<text text-anchor="middle" x="487" y="-314.8" font-family="Ubuntu" font-size="24.00">protocols:</text>
<text text-anchor="middle" x="487" y="-288.8" font-family="Ubuntu" font-size="24.00">TCP, UDP, IP</text>
</g>
<!-- prot_fam&#45;&gt;log_prot -->
<g id="edge9" class="edge">
<title>prot_fam&#45;&gt;log_prot</title>
<path fill="none" stroke="#61c2c5" stroke-width="5" d="M487,-455.65C487,-423.39 487,-376.51 487,-344.28"/>
</g>
<!-- netif -->
<g id="node14" class="node">
<title>netif</title>
<polygon fill="#71809b" stroke="#61c2c5" stroke-width="5" points="566,-246 408,-246 408,-172 566,-172 566,-246"/>
<text text-anchor="middle" x="487" y="-226" font-family="Ubuntu" font-size="20.00">network</text>
<text text-anchor="middle" x="487" y="-204" font-family="Ubuntu" font-size="20.00">interfaces</text>
<text text-anchor="middle" x="487" y="-182" font-family="Ubuntu" font-size="20.00">and drivers</text>
</g>
<!-- log_prot&#45;&gt;netif -->
<g id="edge10" class="edge">
<title>log_prot&#45;&gt;netif</title>
<path fill="none" stroke="#61c2c5" stroke-width="5" d="M487,-271.98C487,-263.62 487,-254.69 487,-246.27"/>
</g>
<!-- net_hw -->
<g id="node15" class="node">
<title>net_hw</title>
<polygon fill="#777777" stroke="#61c2c5" stroke-width="5" points="571,-158 403,-158 403,-86 571,-86 571,-158"/>
<text text-anchor="middle" x="487" y="-128" font-family="Ubuntu" font-size="20.00" fill="white">network:</text>
<text text-anchor="middle" x="487" y="-106" font-family="Ubuntu" font-size="20.00" fill="white">Ethernet, WiFi ...</text>
</g>
<!-- netif&#45;&gt;net_hw -->
<g id="edge11" class="edge">
<title>netif&#45;&gt;net_hw</title>
<path fill="none" stroke="#61c2c5" stroke-width="5" d="M487,-171.95C487,-167.34 487,-162.62 487,-158.02"/>
</g>
<!-- NFS -->
<g id="node16" class="node">
<title>NFS</title>
<polygon fill="#91b5c9" stroke="#8383cc" stroke-width="5" points="625,-393.99 625,-418.01 599.81,-435 564.19,-435 539,-418.01 539,-393.99 564.19,-377 599.81,-377 625,-393.99"/>
<text text-anchor="middle" x="582" y="-399.8" font-family="Ubuntu" font-size="24.00">NFS</text>
</g>
<!-- NFS&#45;&gt;log_prot -->
<g id="edge12" class="edge">
<title>NFS&#45;&gt;log_prot</title>
<path fill="none" stroke="#61c2c5" stroke-width="5" d="M558.03,-380.78C547.03,-369.67 533.79,-356.28 521.73,-344.1"/>
</g>
<!-- storage_ -->
<!-- FS -->
<g id="node19" class="node">
<title>FS</title>
<ellipse fill="#d9e7ee" stroke="#8383cc" stroke-width="5" cx="676" cy="-578" rx="79" ry="36"/>
<text text-anchor="middle" x="676" y="-584.8" font-family="Ubuntu" font-size="24.00">files and</text>
<text text-anchor="middle" x="676" y="-558.8" font-family="Ubuntu" font-size="24.00">directories</text>
</g>
<!-- storage_&#45;&gt;FS -->
<!-- storage&#45;&gt;storage_ -->
<g id="edge13" class="edge">
<title>storage&#45;&gt;storage_</title>
<path fill="none" stroke="#8383cc" stroke-width="5" d="M676,-675.96C676,-666.86 676,-656.91 676,-651.08"/>
<polygon fill="#8383cc" stroke="#8383cc" stroke-width="5" points="678.19,-651.05 676,-646.05 673.81,-651.05 678.19,-651.05"/>
</g>
<!-- memory -->
<g id="node43" class="node">
<title>memory</title>
<polygon fill="white" stroke="#51bf5b" stroke-width="5" points="1082,-719 938,-719 938,-676 1082,-676 1082,-719"/>
<text text-anchor="middle" x="1010" y="-691.3" font-family="Ubuntu" font-size="24.00">memory</text>
</g>
<!-- storage&#45;&gt;memory -->
<!-- VFS -->
<g id="node20" class="node">
<title>VFS</title>
<polygon fill="#b2d3e4" stroke="#8383cc" stroke-width="5" points="755,-528 597,-528 597,-456 755,-456 755,-528"/>
<text text-anchor="middle" x="676" y="-498.8" font-family="Ubuntu" font-size="24.00">Virtual</text>
<text text-anchor="middle" x="676" y="-472.8" font-family="Ubuntu" font-size="24.00">File System</text>
</g>
<!-- FS&#45;&gt;VFS -->
<g id="edge14" class="edge">
<title>FS&#45;&gt;VFS</title>
<path fill="none" stroke="#8383cc" stroke-width="5" d="M676,-541.86C676,-537.37 676,-532.76 676,-528.27"/>
</g>
<!-- VFS&#45;&gt;NFS -->
<g id="edge15" class="edge">
<title>VFS&#45;&gt;NFS</title>
<path fill="none" stroke="#8383cc" stroke-width="5" d="M636.68,-455.86C626.92,-447.14 616.71,-438.01 607.78,-430.04"/>
</g>
<!-- logFS -->
<g id="node21" class="node">
<title>logFS</title>
<polygon fill="#6a9ab1" stroke="#8383cc" stroke-width="5" points="755,-345 597,-345 597,-271 755,-271 755,-345"/>
<text text-anchor="middle" x="676" y="-325" font-family="Ubuntu" font-size="20.00">logical</text>
<text text-anchor="middle" x="676" y="-303" font-family="Ubuntu" font-size="20.00">filesystems:</text>
<text text-anchor="middle" x="676" y="-281" font-family="Ubuntu" font-size="20.00">ext3, xfs ...</text>
</g>
<!-- VFS&#45;&gt;logFS -->
<g id="edge16" class="edge">
<title>VFS&#45;&gt;logFS</title>
<path fill="none" stroke="#8383cc" stroke-width="5" d="M676,-455.65C676,-423.7 676,-377.42 676,-345.22"/>
</g>
<!-- PC -->
<g id="node22" class="node">
<title>PC</title>
<polygon fill="#91b5c9" stroke="#51bf5b" stroke-width="5" points="874,-393.99 874,-418.01 848.81,-435 813.19,-435 788,-418.01 788,-393.99 813.19,-377 848.81,-377 874,-393.99"/>
<text text-anchor="middle" x="831" y="-412" font-family="Ubuntu" font-size="20.00">page</text>
<text text-anchor="middle" x="831" y="-390" font-family="Ubuntu" font-size="20.00">cache</text>
</g>
<!-- VFS&#45;&gt;PC -->
<g id="edge17" class="edge">
<title>VFS&#45;&gt;PC</title>
<path fill="none" stroke="#8383cc" stroke-width="5" d="M740.84,-455.86C760.41,-445.25 781.1,-434.04 797.71,-425.04"/>
</g>
<!-- mmap -->
<g id="node23" class="node">
<title>mmap</title>
<polygon fill="#91b5c9" stroke="#51bf5b" stroke-width="5" points="1082,-393.99 1082,-418.01 1039.82,-435 980.18,-435 938,-418.01 938,-393.99 980.18,-377 1039.82,-377 1082,-393.99"/>
<text text-anchor="middle" x="1010" y="-412" font-family="Ubuntu" font-size="20.00">memory</text>
<text text-anchor="middle" x="1010" y="-390" font-family="Ubuntu" font-size="20.00">mapping</text>
</g>
<!-- VFS&#45;&gt;mmap -->
<g id="edge18" class="edge">
<title>VFS&#45;&gt;mmap</title>
<path fill="none" stroke="#8383cc" stroke-width="5" d="M755.15,-471.09C814.38,-456.2 894.2,-436.12 948.63,-422.43"/>
</g>
<!-- block -->
<g id="node24" class="node">
<title>block</title>
<polygon fill="#71809b" stroke="#8383cc" stroke-width="5" points="755,-246 597,-246 597,-172 755,-172 755,-246"/>
<text text-anchor="middle" x="676" y="-226" font-family="Ubuntu" font-size="20.00">Block</text>
<text text-anchor="middle" x="676" y="-204" font-family="Ubuntu" font-size="20.00">devices</text>
<text text-anchor="middle" x="676" y="-182" font-family="Ubuntu" font-size="20.00">and drivers</text>
</g>
<!-- logFS&#45;&gt;block -->
<g id="edge19" class="edge">
<title>logFS&#45;&gt;block</title>
<path fill="none" stroke="#8383cc" stroke-width="5" d="M676,-270.88C676,-262.8 676,-254.23 676,-246.15"/>
</g>
<!-- PA -->
<g id="node25" class="node">
<title>PA</title>
<polygon fill="#71809b" stroke="#51bf5b" stroke-width="5" points="1089,-245 931,-245 931,-173 1089,-173 1089,-245"/>
<text text-anchor="middle" x="1010" y="-215.8" font-family="Ubuntu" font-size="24.00">Page</text>
<text text-anchor="middle" x="1010" y="-189.8" font-family="Ubuntu" font-size="24.00">Allocator</text>
</g>
<!-- PC&#45;&gt;PA -->
<g id="edge20" class="edge">
<title>PC&#45;&gt;PA</title>
<path fill="none" stroke="#51bf5b" stroke-width="5" d="M854.4,-380.25C885.77,-345.72 941.61,-284.27 977.17,-245.13"/>
</g>
<!-- SW -->
<g id="node27" class="node">
<title>SW</title>
<polygon fill="#91b5c9" stroke="#8383cc" stroke-width="5" points="909,-295.99 909,-320.01 883.81,-337 848.19,-337 823,-320.01 823,-295.99 848.19,-279 883.81,-279 909,-295.99"/>
<text text-anchor="middle" x="866" y="-301.8" font-family="Ubuntu" font-size="24.00">Swap</text>
</g>
<!-- mmap&#45;&gt;SW -->
<g id="edge47" class="edge">
<title>mmap&#45;&gt;SW</title>
<path fill="none" stroke="#51bf5b" stroke-width="5" d="M972.54,-380.03C948.71,-364.14 918.26,-343.84 896.02,-329.01"/>
</g>
<!-- log_mem -->
<g id="node57" class="node">
<title>log_mem</title>
<polygon fill="#6a9ab1" stroke="#51bf5b" stroke-width="5" points="1089,-344 931,-344 931,-272 1089,-272 1089,-344"/>
<text text-anchor="middle" x="1010" y="-314.8" font-family="Ubuntu" font-size="24.00">logical</text>
<text text-anchor="middle" x="1010" y="-288.8" font-family="Ubuntu" font-size="24.00">memory</text>
</g>
<!-- mmap&#45;&gt;log_mem -->
<g id="edge48" class="edge">
<title>mmap&#45;&gt;log_mem</title>
<path fill="none" stroke="#51bf5b" stroke-width="5" d="M1010,-376.97C1010,-366.68 1010,-354.9 1010,-344.06"/>
</g>
<!-- H4 -->
<g id="node26" class="node">
<title>H4</title>
<polygon fill="#777777" stroke="#8383cc" stroke-width="5" points="759,-158 593,-158 593,-86 759,-86 759,-158"/>
<text text-anchor="middle" x="676" y="-128" font-family="Ubuntu" font-size="20.00" fill="white">storage devices:</text>
<text text-anchor="middle" x="676" y="-106" font-family="Ubuntu" font-size="20.00" fill="white">SCSI, NVMe ...</text>
</g>
<!-- block&#45;&gt;H4 -->
<g id="edge21" class="edge">
<title>block&#45;&gt;H4</title>
<path fill="none" stroke="#8383cc" stroke-width="5" d="M676,-171.95C676,-167.34 676,-162.62 676,-158.02"/>
</g>
<!-- H5 -->
<g id="node62" class="node">
<title>H5</title>
<polygon fill="#777777" stroke="#51bf5b" stroke-width="5" points="1089,-158 931,-158 931,-86 1089,-86 1089,-158"/>
<text text-anchor="middle" x="1010" y="-117" font-family="Ubuntu" font-size="20.00" fill="white">MMU, RAM</text>
</g>
<!-- PA&#45;&gt;H5 -->
<g id="edge49" class="edge">
<title>PA&#45;&gt;H5</title>
<path fill="none" stroke="#51bf5b" stroke-width="5" d="M1010,-172.94C1010,-168.09 1010,-163.11 1010,-158.26"/>
</g>
<!-- bottom -->
<g id="node63" class="node">
<title>bottom</title>
<text text-anchor="middle" x="676" y="-29.8" font-family="Ubuntu" font-size="24.00">© 2007&#45;2020 Constantine Shulyupin http://www.MakeLinux.net/kernel/diagram</text>
</g>
<!-- H4&#45;&gt;bottom -->
<!-- SW&#45;&gt;block -->
<g id="edge22" class="edge">
<title>SW&#45;&gt;block</title>
<path fill="none" stroke="#8383cc" stroke-width="5" d="M832.03,-289.66C808.34,-277.56 775.85,-260.98 746.66,-246.07"/>
</g>
<!-- processing_ -->
<!-- proc -->
<g id="node30" class="node">
<title>proc</title>
<ellipse fill="#d9e7ee" stroke="#c46747" stroke-width="5" cx="1190" cy="-578" rx="79" ry="36"/>
<text text-anchor="middle" x="1190" y="-571.8" font-family="Ubuntu" font-size="24.00">Processes</text>
</g>
<!-- processing_&#45;&gt;proc -->
<!-- processing -->
<g id="node29" class="node">
<title>processing</title>
<polygon fill="white" stroke="#c46747" stroke-width="5" points="1262,-719 1118,-719 1118,-676 1262,-676 1262,-719"/>
<text text-anchor="middle" x="1190" y="-691.3" font-family="Ubuntu" font-size="24.00">processing</text>
</g>
<!-- processing&#45;&gt;processing_ -->
<g id="edge23" class="edge">
<title>processing&#45;&gt;processing_</title>
<path fill="none" stroke="#c46747" stroke-width="5" d="M1190,-675.96C1190,-666.86 1190,-656.91 1190,-651.08"/>
<polygon fill="#c46747" stroke="#c46747" stroke-width="5" points="1192.19,-651.05 1190,-646.05 1187.81,-651.05 1192.19,-651.05"/>
</g>
<!-- HI -->
<g id="node37" class="node">
<title>HI</title>
<polygon fill="white" stroke="#cfbf57" stroke-width="5" points="1453,-719 1309,-719 1309,-676 1453,-676 1453,-719"/>
<text text-anchor="middle" x="1381" y="-700.9" font-family="Ubuntu" font-size="12.00">human</text>
<text text-anchor="middle" x="1381" y="-687.9" font-family="Ubuntu" font-size="12.00">interface</text>
</g>
<!-- processing&#45;&gt;HI -->
<!-- Tasks -->
<g id="node31" class="node">
<title>Tasks</title>
<polygon fill="#b2d3e4" stroke="#c46747" stroke-width="5" points="1269,-528 1111,-528 1111,-456 1269,-456 1269,-528"/>
<text text-anchor="middle" x="1190" y="-485.8" font-family="Ubuntu" font-size="24.00">Tasks</text>
</g>
<!-- proc&#45;&gt;Tasks -->
<g id="edge24" class="edge">
<title>proc&#45;&gt;Tasks</title>
<path fill="none" stroke="#c46747" stroke-width="5" d="M1190,-541.86C1190,-537.37 1190,-532.76 1190,-528.27"/>
</g>
<!-- sync -->
<g id="node32" class="node">
<title>sync</title>
<polygon fill="#91b5c9" stroke="#c46747" stroke-width="5" points="1269,-395.64 1269,-416.36 1222.72,-431 1157.28,-431 1111,-416.36 1111,-395.64 1157.28,-381 1222.72,-381 1269,-395.64"/>
<text text-anchor="middle" x="1190" y="-401" font-family="Ubuntu Condensed" font-size="20.00">synchronization</text>
</g>
<!-- Tasks&#45;&gt;sync -->
<g id="edge25" class="edge">
<title>Tasks&#45;&gt;sync</title>
<path fill="none" stroke="#c46747" stroke-width="5" d="M1190,-455.86C1190,-447.59 1190,-438.95 1190,-431.28"/>
</g>
<!-- sched -->
<g id="node33" class="node">
<title>sched</title>
<polygon fill="#6a9ab1" stroke="#c46747" stroke-width="5" points="1269,-344 1111,-344 1111,-272 1269,-272 1269,-344"/>
<text text-anchor="middle" x="1190" y="-301.8" font-family="Ubuntu" font-size="24.00">Scheduler</text>
</g>
<!-- sync&#45;&gt;sched -->
<g id="edge26" class="edge">
<title>sync&#45;&gt;sched</title>
<path fill="none" stroke="#c46747" stroke-width="5" d="M1190,-380.78C1190,-369.67 1190,-356.28 1190,-344.1"/>
</g>
<!-- IRQ -->
<g id="node34" class="node">
<title>IRQ</title>
<polygon fill="#71809b" stroke="#c46747" stroke-width="5" points="1269,-246 1111,-246 1111,-172 1269,-172 1269,-246"/>
<text text-anchor="middle" x="1190" y="-226" font-family="Ubuntu" font-size="20.00">interrupts</text>
<text text-anchor="middle" x="1190" y="-204" font-family="Ubuntu" font-size="20.00">core,</text>
<text text-anchor="middle" x="1190" y="-182" font-family="Ubuntu" font-size="20.00">CPU arch</text>
</g>
<!-- sched&#45;&gt;IRQ -->
<g id="edge27" class="edge">
<title>sched&#45;&gt;IRQ</title>
<path fill="none" stroke="#c46747" stroke-width="5" d="M1190,-271.98C1190,-263.62 1190,-254.69 1190,-246.27"/>
</g>
<!-- CPU -->
<g id="node35" class="node">
<title>CPU</title>
<polygon fill="#777777" stroke="#c46747" stroke-width="5" points="1269,-158 1111,-158 1111,-86 1269,-86 1269,-158"/>
<text text-anchor="middle" x="1190" y="-117" font-family="Ubuntu" font-size="20.00" fill="white">CPU</text>
</g>
<!-- IRQ&#45;&gt;CPU -->
<g id="edge28" class="edge">
<title>IRQ&#45;&gt;CPU</title>
<path fill="none" stroke="#c46747" stroke-width="5" d="M1190,-171.95C1190,-167.34 1190,-162.62 1190,-158.02"/>
</g>
<!-- HI_ -->
<!-- char -->
<g id="node38" class="node">
<title>char</title>
<ellipse fill="#d9e7ee" stroke="#cfbf57" stroke-width="5" cx="1381" cy="-578" rx="79" ry="36"/>
<text text-anchor="middle" x="1381" y="-584.8" font-family="Ubuntu" font-size="24.00">char</text>
<text text-anchor="middle" x="1381" y="-558.8" font-family="Ubuntu" font-size="24.00">devices</text>
</g>
<!-- HI_&#45;&gt;char -->
<!-- HI&#45;&gt;HI_ -->
<g id="edge29" class="edge">
<title>HI&#45;&gt;HI_</title>
<path fill="none" stroke="#cfbf57" stroke-width="5" d="M1381,-675.96C1381,-666.86 1381,-656.91 1381,-651.08"/>
<polygon fill="#cfbf57" stroke="#cfbf57" stroke-width="5" points="1383.19,-651.05 1381,-646.05 1378.81,-651.05 1383.19,-651.05"/>
</g>
<!-- input -->
<g id="node39" class="node">
<title>input</title>
<polygon fill="#b2d3e4" stroke="#cfbf57" stroke-width="5" points="1460,-528 1302,-528 1302,-456 1460,-456 1460,-528"/>
<text text-anchor="middle" x="1381" y="-498.8" font-family="Ubuntu" font-size="24.00">input</text>
<text text-anchor="middle" x="1381" y="-472.8" font-family="Ubuntu" font-size="24.00">subsystem</text>
</g>
<!-- char&#45;&gt;input -->
<g id="edge30" class="edge">
<title>char&#45;&gt;input</title>
<path fill="none" stroke="#cfbf57" stroke-width="5" d="M1381,-541.86C1381,-537.37 1381,-532.76 1381,-528.27"/>
</g>
<!-- F7 -->
<g id="node40" class="node">
<title>F7</title>
<polygon fill="#6a9ab1" stroke="#cfbf57" stroke-width="5" points="1460,-344 1302,-344 1302,-272 1460,-272 1460,-344"/>
<text text-anchor="middle" x="1381" y="-314.8" font-family="Ubuntu" font-size="24.00">HI class</text>
<text text-anchor="middle" x="1381" y="-288.8" font-family="Ubuntu" font-size="24.00">drivers</text>
</g>
<!-- input&#45;&gt;F7 -->
<g id="edge31" class="edge">
<title>input&#45;&gt;F7</title>
<path fill="none" stroke="#cfbf57" stroke-width="5" d="M1381,-455.65C1381,-423.39 1381,-376.51 1381,-344.28"/>
</g>
<!-- HID -->
<g id="node41" class="node">
<title>HID</title>
<g id="a_node41"><a xlink:href="https://www.kernel.org/doc/html/latest/hid/" xlink:title="HI\nperipherals\ndrivers">
<polygon fill="#71809b" stroke="#cfbf57" stroke-width="5" points="1460,-246 1302,-246 1302,-172 1460,-172 1460,-246"/>
<text text-anchor="middle" x="1381" y="-226" font-family="Ubuntu" font-size="20.00">HI</text>
<text text-anchor="middle" x="1381" y="-204" font-family="Ubuntu" font-size="20.00">peripherals</text>
<text text-anchor="middle" x="1381" y="-182" font-family="Ubuntu" font-size="20.00">drivers</text>
</a>
</g>
</g>
<!-- F7&#45;&gt;HID -->
<g id="edge32" class="edge">
<title>F7&#45;&gt;HID</title>
<path fill="none" stroke="#cfbf57" stroke-width="5" d="M1381,-271.98C1381,-263.62 1381,-254.69 1381,-246.27"/>
</g>
<!-- H7 -->
<g id="node42" class="node">
<title>H7</title>
<polygon fill="#777777" stroke="#cfbf57" stroke-width="5" points="1471,-158 1291,-158 1291,-86 1471,-86 1471,-158"/>
<text text-anchor="middle" x="1381" y="-128" font-family="Ubuntu" font-size="20.00" fill="white">display, keyboard,</text>
<text text-anchor="middle" x="1381" y="-106" font-family="Ubuntu" font-size="20.00" fill="white">mouse, audio</text>
</g>
<!-- HID&#45;&gt;H7 -->
<g id="edge33" class="edge">
<title>HID&#45;&gt;H7</title>
<path fill="none" stroke="#cfbf57" stroke-width="5" d="M1381,-171.95C1381,-167.34 1381,-162.62 1381,-158.02"/>
</g>
<!-- memory&#45;&gt;processing -->
<!-- memory_ -->
<!-- memory&#45;&gt;memory_ -->
<g id="edge50" class="edge">
<title>memory&#45;&gt;memory_</title>
<path fill="none" stroke="#51bf5b" stroke-width="5" d="M1010,-675.96C1010,-666.86 1010,-656.91 1010,-651.08"/>
<polygon fill="#51bf5b" stroke="#51bf5b" stroke-width="5" points="1012.19,-651.05 1010,-646.05 1007.81,-651.05 1012.19,-651.05"/>
</g>
<!-- functions_ -->
<!-- functions_&#45;&gt;system -->
<!-- functions -->
<g id="node45" class="node">
<title>functions</title>
<g id="a_node45"><a xlink:href="http://www.makelinux.net/ldd3/chp-1-sect-2.shtml" xlink:title="Columns represent main functionalities of the kernel">
<polygon fill="none" stroke="gray" stroke-dasharray="5,2" points="136.5,-719 21.5,-719 21.5,-676 136.5,-676 136.5,-719"/>
<text text-anchor="middle" x="79" y="-691.3" font-family="Ubuntu" font-size="24.00">functions</text>
</a>
</g>
</g>
<!-- functions&#45;&gt;functions_ -->
<g id="edge40" class="edge">
<title>functions&#45;&gt;functions_</title>
<path fill="none" stroke="gray" d="M136.83,-697.5C150.73,-697.5 164.62,-697.5 178.51,-697.5"/>
<polygon fill="gray" stroke="gray" points="178.63,-699.25 183.63,-697.5 178.63,-695.75 178.63,-699.25"/>
</g>
<!-- layers -->
<g id="node64" class="node">
<title>layers</title>
<g id="a_node64"><a xlink:title="Functionalities are divided to common layers. It is approximate division.">
<polygon fill="lightgray" stroke="black" stroke-width="0" points="119.5,-662 38.5,-662 38.5,-628 119.5,-628 119.5,-662"/>
<text text-anchor="middle" x="79" y="-638.8" font-family="Ubuntu" font-size="24.00">layers</text>
</a>
</g>
</g>
<!-- functions&#45;&gt;layers -->
<!-- usr_ -->
<!-- usr -->
<g id="node47" class="node">
<title>usr</title>
<ellipse fill="#d9e7ee" stroke="black" stroke-width="0" cx="79" cy="-578" rx="79" ry="36"/>
<text text-anchor="middle" x="79" y="-584.8" font-family="Ubuntu" font-size="24.00">user space</text>
<text text-anchor="middle" x="79" y="-558.8" font-family="Ubuntu" font-size="24.00">interfaces</text>
</g>
<!-- usr&#45;&gt;usr_ -->
<g id="edge56" class="edge">
<title>usr&#45;&gt;usr_</title>
<path fill="none" stroke="#d9e7ee" stroke-width="5" d="M158.11,-578C170.52,-578 182.93,-578 195.35,-578"/>
<polygon fill="#d9e7ee" stroke="#d9e7ee" stroke-width="5" points="195.66,-580.19 200.66,-578 195.66,-575.81 195.66,-580.19"/>
</g>
<!-- virt -->
<g id="node51" class="node">
<title>virt</title>
<polygon fill="#b2d3e4" stroke="black" stroke-width="0" points="158,-528 0,-528 0,-456 158,-456 158,-528"/>
<text text-anchor="middle" x="79" y="-498.8" font-family="Ubuntu" font-size="24.00">virtual</text>
<text text-anchor="middle" x="79" y="-472.8" font-family="Ubuntu" font-size="24.00">subsystems</text>
</g>
<!-- usr&#45;&gt;virt -->
<g id="edge57" class="edge">
<title>usr&#45;&gt;virt</title>
<path fill="none" stroke="#d9e7ee" stroke-width="5" d="M79,-541.86C79,-537.37 79,-532.76 79,-528.27"/>
</g>
<!-- MA -->
<g id="node48" class="node">
<title>MA</title>
<ellipse fill="#d9e7ee" stroke="#51bf5b" stroke-width="5" cx="1010" cy="-578" rx="79" ry="36"/>
<text text-anchor="middle" x="1010" y="-584.8" font-family="Ubuntu" font-size="24.00">memory</text>
<text text-anchor="middle" x="1010" y="-558.8" font-family="Ubuntu" font-size="24.00">access</text>
</g>
<!-- VM -->
<g id="node52" class="node">
<title>VM</title>
<polygon fill="#b2d3e4" stroke="#51bf5b" stroke-width="5" points="1089,-528 931,-528 931,-456 1089,-456 1089,-528"/>
<text text-anchor="middle" x="1010" y="-498.8" font-family="Ubuntu" font-size="24.00">Virtual</text>
<text text-anchor="middle" x="1010" y="-472.8" font-family="Ubuntu" font-size="24.00">memory</text>
</g>
<!-- MA&#45;&gt;VM -->
<g id="edge51" class="edge">
<title>MA&#45;&gt;VM</title>
<path fill="none" stroke="#51bf5b" stroke-width="5" d="M1010,-541.86C1010,-537.37 1010,-532.76 1010,-528.27"/>
</g>
<!-- memory_&#45;&gt;MA -->
<!-- D0 -->
<!-- virt&#45;&gt;D0 -->
<g id="edge58" class="edge">
<title>virt&#45;&gt;D0</title>
<path fill="none" stroke="#b2d3e4" stroke-width="5" d="M158.11,-492C170.52,-492 182.93,-492 195.35,-492"/>
<polygon fill="#b2d3e4" stroke="#b2d3e4" stroke-width="5" points="195.66,-494.19 200.66,-492 195.66,-489.81 195.66,-494.19"/>
</g>
<!-- bridges -->
<g id="node54" class="node">
<title>bridges</title>
<g id="a_node54"><a xlink:href="https://en.wikipedia.org/wiki/Bridge_pattern" xlink:title="bridges">
<polygon fill="#91b5c9" stroke="black" stroke-width="0" points="158,-391.09 158,-420.91 111.72,-442 46.28,-442 0,-420.91 0,-391.09 46.28,-370 111.72,-370 158,-391.09"/>
<text text-anchor="middle" x="79" y="-399.8" font-family="Ubuntu" font-size="24.00">bridges</text>
</a>
</g>
</g>
<!-- virt&#45;&gt;bridges -->
<g id="edge59" class="edge">
<title>virt&#45;&gt;bridges</title>
<path fill="none" stroke="#b2d3e4" stroke-width="5" d="M79,-455.86C79,-451.37 79,-446.76 79,-442.27"/>
</g>
<!-- VM&#45;&gt;mmap -->
<g id="edge52" class="edge">
<title>VM&#45;&gt;mmap</title>
<path fill="none" stroke="#51bf5b" stroke-width="5" d="M1010,-455.86C1010,-448.94 1010,-441.76 1010,-435.11"/>
</g>
<!-- E0 -->
<!-- bridges&#45;&gt;E0 -->
<g id="edge60" class="edge">
<title>bridges&#45;&gt;E0</title>
<path fill="none" stroke="#91b5c9" stroke-width="6" d="M158.11,-406C170.52,-406 182.93,-406 195.35,-406"/>
<polygon fill="#91b5c9" stroke="#91b5c9" stroke-width="6" points="195.66,-408.63 200.66,-406 195.66,-403.38 195.66,-408.63"/>
</g>
<!-- logical -->
<g id="node56" class="node">
<title>logical</title>
<polygon fill="#6a9ab1" stroke="black" stroke-width="0" points="158,-344 0,-344 0,-272 158,-272 158,-344"/>
<text text-anchor="middle" x="79" y="-301.8" font-family="Ubuntu" font-size="24.00">logical</text>
</g>
<!-- bridges&#45;&gt;logical -->
<g id="edge61" class="edge">
<title>bridges&#45;&gt;logical</title>
<path fill="none" stroke="#91b5c9" stroke-width="6" d="M79,-369.8C79,-361.45 79,-352.55 79,-344.2"/>
</g>
<!-- F0 -->
<!-- logical&#45;&gt;F0 -->
<g id="edge62" class="edge">
<title>logical&#45;&gt;F0</title>
<path fill="none" stroke="#6a9ab1" stroke-width="6" d="M158.11,-308C170.52,-308 182.93,-308 195.35,-308"/>
<polygon fill="#6a9ab1" stroke="#6a9ab1" stroke-width="6" points="195.66,-310.63 200.66,-308 195.66,-305.38 195.66,-310.63"/>
</g>
<!-- HWI -->
<g id="node59" class="node">
<title>HWI</title>
<polygon fill="#71809b" stroke="black" stroke-width="0" points="158,-245 0,-245 0,-173 158,-173 158,-245"/>
<text text-anchor="middle" x="79" y="-215.8" font-family="Ubuntu" font-size="24.00">hardware</text>
<text text-anchor="middle" x="79" y="-189.8" font-family="Ubuntu" font-size="24.00">interfaces</text>
</g>
<!-- logical&#45;&gt;HWI -->
<g id="edge63" class="edge">
<title>logical&#45;&gt;HWI</title>
<path fill="none" stroke="#6a9ab1" stroke-width="6" d="M79,-271.98C79,-263.3 79,-253.99 79,-245.29"/>
</g>
<!-- log_mem&#45;&gt;PA -->
<g id="edge53" class="edge">
<title>log_mem&#45;&gt;PA</title>
<path fill="none" stroke="#51bf5b" stroke-width="5" d="M1010,-271.98C1010,-263.3 1010,-253.99 1010,-245.29"/>
</g>
<!-- G0 -->
<!-- HWI&#45;&gt;G0 -->
<g id="edge64" class="edge">
<title>HWI&#45;&gt;G0</title>
<path fill="none" stroke="#71809b" stroke-width="6" d="M158.11,-209C170.52,-209 182.93,-209 195.35,-209"/>
<polygon fill="#71809b" stroke="#71809b" stroke-width="6" points="195.66,-211.63 200.66,-209 195.66,-206.38 195.66,-211.63"/>
</g>
<!-- HW -->
<g id="node61" class="node">
<title>HW</title>
<polygon fill="#777777" stroke="black" stroke-width="0" points="158,-158 0,-158 0,-86 158,-86 158,-158"/>
<text text-anchor="middle" x="79" y="-128.8" font-family="Ubuntu" font-size="24.00" fill="white">electronics,</text>
<text text-anchor="middle" x="79" y="-102.8" font-family="Ubuntu" font-size="24.00" fill="white">hardware</text>
</g>
<!-- HWI&#45;&gt;HW -->
<g id="edge65" class="edge">
<title>HWI&#45;&gt;HW</title>
<path fill="none" stroke="#71809b" stroke-width="6" d="M79,-172.94C79,-168.09 79,-163.11 79,-158.26"/>
</g>
<!-- H0 -->
<!-- HW&#45;&gt;H0 -->
<g id="edge66" class="edge">
<title>HW&#45;&gt;H0</title>
<path fill="none" stroke="#777777" stroke-width="6" d="M158.11,-122C170.52,-122 182.93,-122 195.35,-122"/>
<polygon fill="#777777" stroke="#777777" stroke-width="6" points="195.66,-124.63 200.66,-122 195.66,-119.38 195.66,-124.63"/>
</g>
<!-- layers&#45;&gt;usr -->
<g id="edge67" class="edge">
<title>layers&#45;&gt;usr</title>
<path fill="none" stroke="gray" d="M79,-627.93C79,-625.3 79,-622.47 79,-619.56"/>
<polygon fill="gray" stroke="gray" points="80.75,-619.22 79,-614.22 77.25,-619.22 80.75,-619.22"/>
</g>
<!-- LKD -->
<g id="node65" class="node">
<title>LKD</title>
<text text-anchor="middle" x="676" y="-745" font-family="Ubuntu" font-size="40.00">Linux kernel diagram</text>
</g>
<!-- LKD&#45;&gt;storage -->
</g>
</svg>
